<svg width="36" height="50" viewBox="0 0 36 50" fill="none" xmlns="http://www.w3.org/2000/svg">
<path d="M26.6064 30.7817V30.7744L31.3305 16.3603V14.6904H6.77826L5.48061 10.7909C5.40969 10.3427 5.02142 10.0002 4.55322 10.0002L0.939621 10C0.420711 10 0 10.4207 0 10.9396C0 11.4586 0.420686 11.8792 0.939621 11.8792H4.24293L7.65231 22.1016L9.85713 28.8291L10.4806 30.7439V30.7817H10.4928L11.3271 33.3441C11.3429 33.4233 11.3675 33.4993 11.4012 33.5712L11.436 33.6777H11.4585C11.6556 34.0007 12.0242 34.2191 12.4083 34.2191H27.2611C27.8275 34.2191 28.2867 33.7445 28.2867 33.1586C28.2867 32.5729 27.828 32.0981 27.2611 32.0981H12.5911L12.1215 30.7819L26.6061 30.7817L26.6064 30.7817ZM24.7599 16.3601H29.7666L27.9142 22.0113H24.7595L24.7599 16.3601ZM24.7599 23.6068H27.3917L25.5876 29.1118H24.7599V23.6068ZM19.4528 16.3601H22.9557V22.0113L19.4528 22.0111V16.3601ZM19.4528 23.6068H22.9557V29.1118L19.4528 29.112V23.6068ZM14.1452 16.3601H17.6482V22.0113L14.1452 22.0111V16.3601ZM14.1452 23.6068H17.6482V29.1118L14.1452 29.112V23.6068ZM7.33409 16.3601H12.3406V22.0113H9.18644L7.33409 16.3601ZM9.70882 23.6068H12.3407V29.1118H11.5261L11.365 28.6604L9.70882 23.6068Z" fill="#3163B7"/>
<path d="M15.9317 37.7458C15.9317 38.9907 14.9226 40.0001 13.6776 40.0001C12.4329 40.0001 11.4236 38.9907 11.4236 37.7458C11.4236 36.501 12.4329 35.4917 13.6776 35.4917C14.9226 35.4917 15.9317 36.501 15.9317 37.7458Z" fill="#3163B7"/>
<path d="M28.2461 37.7458C28.2461 38.9907 27.2371 40.0001 25.9921 40.0001C24.7471 40.0001 23.738 38.9907 23.738 37.7458C23.738 36.501 24.7471 35.4917 25.9921 35.4917C27.2371 35.4917 28.2461 36.501 28.2461 37.7458Z" fill="#3163B7"/>
</svg>
